<svg xmlns="http://www.w3.org/2000/svg" xmlns:xlink="http://www.w3.org/1999/xlink" width="840" height="415" xmlns:v="https://vecta.io/nano"><style><![CDATA[.B{fill:none}.C{stroke-miterlimit:10}.D{stroke:#231f20}.E{stroke-linejoin:round}.F{stroke-width:1.986}.G{stroke-linecap:round}.H{fill:#f0573e}.I{fill:#fff}.J{fill:#394359}.K{stroke-width:2.443}]]></style><g class="J"><path d="M622.48 212.314h-2v-28.667c0-9.92-4.104-17.142-12.197-21.462-6.094-3.254-12.24-3.566-12.303-3.568H261.282c-23.035 0-24.51 21.473-24.56 22.39l.002 31.31h-2v-31.363c.458-8.453 6.596-24.333 26.56-24.333h334.743c.31.012 26.455 1.49 26.455 27.03v28.666z"/><path d="M432.602 157.617h2v54.697h-2zM309.325 296.3h-2v-21.904c0-4.476-1.845-7.73-5.483-9.673-2.775-1.48-5.56-1.623-5.586-1.624H176.133c-10.4 0-11.053 9.665-11.076 10.077l.002 23.123h-2v-23.178c.008-.174.794-12.022 13.074-12.022H296.3c.174.007 13.024.733 13.024 13.296V296.3z"/><path d="M234.192 262.1h2v34.2h-2zm273.742 34.134h-2V274.33c0-4.476-1.846-7.73-5.484-9.673-2.773-1.48-5.56-1.623-5.586-1.624l-120.122.001c-10.4 0-11.053 9.665-11.076 10.077l.002 23.123h-2v-23.178c.008-.174.794-12.022 13.074-12.022H494.9c.176.007 13.025.733 13.025 13.296v21.904z"/><path d="M432.8 262.034h2v34.2h-2z"/></g><g stroke="#b3b2b3" stroke-width="2" class="B C"><path d="M549.348 296.234v-2"/><path stroke-dasharray="4.051,4.051" d="M549.348 290.184v-17.127s.6-11.022 12.074-11.022H681.6s12.023.544 12.023 12.296v17.887"/><path d="M693.613 294.238v1.996m-73.133-34.2v2"/><path stroke-dasharray="4.314,4.314" d="M620.48 268.35v23.728"/><path d="M620.48 294.234v2"/></g><g class="J"><path d="M620.674 257.295c-10.3 0-18.693-8.386-18.693-18.693s8.385-18.693 18.693-18.693 18.693 8.386 18.693 18.693a18.72 18.72 0 0 1-18.693 18.693m0-35.387c-9.205 0-16.693 7.488-16.693 16.693s7.488 16.693 16.693 16.693 16.693-7.488 16.693-16.693-7.488-16.693-16.693-16.693m-1.374 5.71h2v21h-2z"/><path d="M610.3 237.617h20v2h-20z"/></g><path d="M206.93 237.623h-1.2c-.14 0-.25-.034-.336-.104s-.15-.158-.192-.265l-1.072-2.768h-5.144l-1.072 2.768c-.038.096-.102.182-.192.256a.51.51 0 0 1-.336.112h-1.2l4.584-11.464h1.576l4.584 11.465zm-7.512-4.256h4.28l-1.8-4.664c-.117-.288-.232-.648-.344-1.08l-.172.604-.164.484-1.8 4.656zm8.735 7V229.52H209a.36.36 0 0 1 .384.296l.12.96a4.33 4.33 0 0 1 1.188-1.017c.445-.256.958-.384 1.54-.384a3.09 3.09 0 0 1 1.264.268 2.63 2.63 0 0 1 .968.792c.267.35.472.783.616 1.3s.216 1.1.216 1.784c0 .597-.08 1.153-.24 1.668s-.4.96-.688 1.336-.665.672-1.1.888-.924.324-1.468.324c-.5 0-.93-.083-1.284-.248s-.668-.4-.94-.704v3.584h-1.424zm3.608-9.84c-.464 0-.87.106-1.22.32s-.67.515-.964.904v3.92c.26.353.548.6.86.744s.66.216 1.044.216c.752 0 1.33-.27 1.736-.808s.608-1.307.608-2.304c0-.528-.046-.98-.14-1.36s-.228-.7-.404-.933a1.55 1.55 0 0 0-.648-.53 2.19 2.19 0 0 0-.872-.167z"/><use xlink:href="#B"/><path d="M227.4 225.84v11.784h-1.424V225.84h1.424zm4.416 1.135a.91.91 0 0 1-.084.39 1.08 1.08 0 0 1-.224.319 1.06 1.06 0 0 1-.324.221.98.98 0 0 1-.392.08.95.95 0 0 1-.388-.08 1.07 1.07 0 0 1-.32-.22 1.05 1.05 0 0 1-.22-.32c-.053-.12-.08-.25-.08-.4s.026-.27.08-.396a1.03 1.03 0 0 1 .22-.328 1.05 1.05 0 0 1 .32-.22c.12-.054.25-.08.388-.08a.96.96 0 0 1 .392.08c.123.053.23.127.324.22s.168.203.224.328a.94.94 0 0 1 .084.396zm-.32 2.545v8.104h-1.424v-8.104h1.424zm8.04 1.44c-.042.06-.085.104-.128.136s-.104.048-.184.048-.167-.033-.26-.1a3.68 3.68 0 0 0-.356-.22 3.05 3.05 0 0 0-.524-.22 2.46 2.46 0 0 0-.756-.1c-.395 0-.744.07-1.048.212s-.56.346-.764.612-.36.6-.464.968a4.8 4.8 0 0 0-.156 1.272 4.6 4.6 0 0 0 .168 1.308c.112.38.27.7.472.96a2.01 2.01 0 0 0 .74.592 2.27 2.27 0 0 0 .98.204c.347 0 .632-.04.856-.124s.4-.175.56-.275l.368-.276c.096-.083.192-.124.288-.124a.3.3 0 0 1 .272.136l.4.52a3.07 3.07 0 0 1-1.32.947 4.68 4.68 0 0 1-1.672.301c-.507 0-.978-.094-1.412-.28s-.812-.457-1.132-.813a3.84 3.84 0 0 1-.756-1.308c-.184-.518-.276-1.106-.276-1.768 0-.603.084-1.16.252-1.672s.413-.954.736-1.324a3.33 3.33 0 0 1 1.196-.868c.475-.208 1.02-.313 1.632-.313.565 0 1.066.093 1.504.276s.824.444 1.16.78l-.376.513zm7.896 6.663h-.632a.75.75 0 0 1-.336-.064c-.085-.042-.14-.133-.168-.27l-.16-.752-.624.516c-.203.152-.416.28-.64.384a3.25 3.25 0 0 1-.716.236 4.06 4.06 0 0 1-.844.08 2.88 2.88 0 0 1-.884-.132 2.04 2.04 0 0 1-.716-.397c-.203-.177-.364-.4-.484-.67s-.18-.6-.18-.96a1.8 1.8 0 0 1 .264-.928c.176-.297.46-.56.852-.8s.905-.42 1.54-.566 1.4-.22 2.328-.22v-.636c0-.634-.135-1.112-.404-1.437s-.668-.487-1.196-.487c-.347 0-.64.044-.876.132a3.37 3.37 0 0 0-.616.296l-.448.296c-.125.088-.25.132-.372.132-.096 0-.18-.025-.252-.076a.57.57 0 0 1-.172-.188l-.256-.456c.448-.432.93-.755 1.448-.968s1.1-.32 1.72-.32c.453 0 .856.075 1.208.224a2.47 2.47 0 0 1 .888.624 2.66 2.66 0 0 1 .544.969c.123.378.184.794.184 1.248v5.182zm-3.696-.872c.25 0 .48-.025.688-.076a2.7 2.7 0 0 0 .588-.216c.184-.093.36-.207.528-.34a4.61 4.61 0 0 0 .492-.456v-1.672c-.656 0-1.213.04-1.672.125s-.832.2-1.12.325-.498.293-.628.475a1.03 1.03 0 0 0-.196.612 1.36 1.36 0 0 0 .104.555c.07.155.163.283.28.383a1.11 1.11 0 0 0 .416.217c.16.047.333.068.52.068zm8.312 1c-.64 0-1.132-.18-1.476-.536s-.516-.872-.516-1.544v-4.96h-.976c-.085 0-.157-.025-.216-.076s-.088-.13-.088-.235v-.568l1.328-.168.328-2.504a.3.3 0 0 1 .104-.196c.06-.05.133-.076.224-.076h.72v2.792h2.32v1.032h-2.32v4.864c0 .34.083.595.248.76s.378.248.64.248a1.13 1.13 0 0 0 .388-.06 1.57 1.57 0 0 0 .284-.133l.204-.132c.056-.04.105-.06.148-.06.075 0 .142.045.2.136l.416.68a2.65 2.65 0 0 1-.888.54c-.347.13-.703.196-1.072.196zm5.416-10.775a.91.91 0 0 1-.084.39 1.08 1.08 0 0 1-.224.319 1.06 1.06 0 0 1-.324.221.98.98 0 0 1-.392.08.95.95 0 0 1-.388-.08 1.07 1.07 0 0 1-.32-.22 1.05 1.05 0 0 1-.22-.32c-.053-.12-.08-.25-.08-.4s.026-.27.08-.396a1.03 1.03 0 0 1 .22-.328 1.05 1.05 0 0 1 .32-.22c.12-.054.25-.08.388-.08a.96.96 0 0 1 .392.08c.123.053.23.127.324.22s.168.203.224.328a.96.96 0 0 1 .084.396zm-.32 2.545v8.104h-1.424v-8.104h1.424zm5.792-.13c.592 0 1.126.1 1.604.297s.883.477 1.216.84a3.71 3.71 0 0 1 .768 1.315c.178.515.268 1.1.268 1.725s-.1 1.216-.268 1.728a3.75 3.75 0 0 1-.768 1.313c-.333.362-.74.64-1.216.836s-1.012.292-1.604.292-1.127-.098-1.604-.292a3.38 3.38 0 0 1-1.22-.836c-.336-.362-.595-.8-.776-1.313s-.272-1.088-.272-1.728a5.44 5.44 0 0 1 .272-1.725c.172-.525.44-.953.776-1.315s.743-.643 1.22-.84 1.012-.297 1.604-.297zm0 7.232c.8 0 1.397-.268 1.792-.804s.592-1.284.592-2.244c0-.966-.197-1.718-.592-2.256s-.992-.8-1.792-.8c-.406 0-.758.07-1.056.208a1.99 1.99 0 0 0-.748.6c-.2.26-.35.582-.448.964a5.15 5.15 0 0 0-.148 1.292c0 .48.05.9.148 1.288a2.63 2.63 0 0 0 .448.956 1.99 1.99 0 0 0 .748.596c.298.14.65.208 1.056.208zm5.616 1v-8.104h.848a.36.36 0 0 1 .384.296l.112.88c.352-.4.745-.704 1.18-.944s.938-.36 1.508-.36c.442 0 .833.074 1.172.22a2.26 2.26 0 0 1 .848.624c.227.27.398.593.516.972s.176.798.176 1.256v5.16h-1.424v-5.16c0-.613-.14-1.1-.42-1.428s-.708-.508-1.284-.508a2.4 2.4 0 0 0-1.18.304c-.365.203-.703.478-1.012.824v5.968h-1.424zm-43.24 12.767c.475 0 .898-.08 1.272-.24a2.67 2.67 0 0 0 .948-.672 2.95 2.95 0 0 0 .592-1.032 4.08 4.08 0 0 0 .204-1.32v-6.968h1.544v6.968c0 .66-.105 1.274-.316 1.84a4.27 4.27 0 0 1-.904 1.468c-.392.413-.87.738-1.436.973s-1.2.352-1.904.352-1.34-.117-1.904-.352a4.18 4.18 0 0 1-1.44-.973c-.395-.413-.697-.902-.908-1.468s-.316-1.18-.316-1.84v-6.968h1.544v6.96a4.08 4.08 0 0 0 .204 1.32c.136.4.333.743.592 1.03s.576.514.952.677.8.243 1.276.243zm11.64-5.535c-.064.117-.163.176-.296.176-.08 0-.17-.03-.272-.088l-.372-.196a3.5 3.5 0 0 0-.524-.2 2.48 2.48 0 0 0-.72-.092c-.24 0-.456.03-.648.092s-.356.146-.492.252a1.12 1.12 0 0 0-.312.372 1 1 0 0 0-.108.46.77.77 0 0 0 .18.521c.12.14.278.26.476.36s.42.2.672.27l.772.248.772.292c.25.106.475.24.672.4s.356.356.476.588.18.5.18.836a2.65 2.65 0 0 1-.2 1.036c-.133.317-.33.593-.592.824a2.88 2.88 0 0 1-.96.548c-.378.133-.816.2-1.312.2-.565 0-1.078-.092-1.536-.276a3.9 3.9 0 0 1-1.168-.708l.336-.544a.48.48 0 0 1 .152-.16c.06-.038.136-.057.232-.057s.197.037.304.112l.388.248c.152.1.336.173.552.248s.487.1.812.1c.277 0 .52-.035.728-.107s.38-.17.52-.292a1.16 1.16 0 0 0 .308-.424 1.33 1.33 0 0 0 .1-.513.85.85 0 0 0-.18-.556 1.56 1.56 0 0 0-.476-.376c-.196-.106-.423-.194-.676-.27l-.776-.244-.776-.292a2.71 2.71 0 0 1-.676-.412 1.85 1.85 0 0 1-.476-.612c-.12-.242-.18-.537-.18-.884a2.2 2.2 0 0 1 .192-.893c.128-.287.315-.535.56-.752a2.74 2.74 0 0 1 .904-.516c.357-.128.765-.192 1.224-.192.534 0 1.012.084 1.436.252a3.43 3.43 0 0 1 1.1.692l-.32.52zm5.51-1.465c.485 0 .933.082 1.344.244s.765.397 1.064.704.532.686.7 1.136a4.39 4.39 0 0 1 .252 1.54c0 .225-.024.374-.072.448s-.14.112-.272.112h-5.392c.01.512.08.957.208 1.336s.304.694.528.948.5.442.8.567.656.188 1.04.188c.357 0 .665-.04.924-.124a4.36 4.36 0 0 0 .668-.27l.468-.268c.125-.083.233-.124.324-.124.117 0 .208.045.272.136l.4.52c-.176.213-.387.398-.632.556s-.508.287-.788.388a4.97 4.97 0 0 1-.868.229 5.39 5.39 0 0 1-.888.076c-.56 0-1.076-.095-1.548-.284s-.88-.467-1.224-.832-.612-.817-.804-1.356-.288-1.157-.288-1.855a4.73 4.73 0 0 1 .26-1.584c.173-.5.422-.916.748-1.276a3.45 3.45 0 0 1 1.192-.848c.47-.205.997-.3 1.584-.3zm.033 1.048c-.688 0-1.23.198-1.624.596s-.64.948-.736 1.652h4.408a2.87 2.87 0 0 0-.136-.908 2.01 2.01 0 0 0-.4-.712 1.8 1.8 0 0 0-.644-.464 2.16 2.16 0 0 0-.868-.164zm5.143 7.185v-8.104h.816c.155 0 .26.03.32.088s.1.16.12.304l.096 1.264c.277-.565.62-1.007 1.028-1.324a2.28 2.28 0 0 1 1.436-.476c.224 0 .427.025.608.076s.35.12.504.212l-.184 1.063c-.038.134-.12.2-.248.2-.075 0-.2-.025-.344-.076a2.2 2.2 0 0 0-.648-.075c-.496 0-.9.144-1.244.432s-.612.707-.836 1.256v5.16h-1.424zm-89 91.407v1.027h-4.472v3.094h3.62v.988h-3.62v3.178h4.472v1.027h-5.74v-9.314h5.74z"/><use xlink:href="#C"/><path d="M172.132 352.346c-.165 0-.27-.08-.312-.24l-.104-.8c-.282.343-.604.616-.965.822a2.47 2.47 0 0 1-1.245.309c-.377 0-.72-.072-1.027-.218s-.57-.358-.787-.64-.383-.633-.5-1.054-.176-.903-.176-1.45c0-.485.065-.937.195-1.355s.317-.78.562-1.09a2.64 2.64 0 0 1 .894-.725c.35-.175.75-.263 1.196-.263.403 0 .748.068 1.034.204a2.48 2.48 0 0 1 .767.575v-3.652h1.157v9.574h-.69zm-2.242-.845c.377 0 .708-.087.99-.26s.545-.418.784-.734v-3.185c-.212-.286-.445-.486-.7-.602a2.03 2.03 0 0 0-.842-.172c-.616 0-1.088.22-1.417.656s-.494 1.062-.494 1.872c0 .43.037.796.1 1.102s.182.557.325.754a1.28 1.28 0 0 0 .526.433c.208.09.447.137.716.137z"/><use xlink:href="#D"/><use xlink:href="#E"/><use xlink:href="#F"/><use xlink:href="#G"/><use xlink:href="#E" x="17.693"/><path d="M293.423 351.526V355h-1.254v-9.314h2.75c.59 0 1.102.068 1.537.205s.796.33 1.082.58a2.34 2.34 0 0 1 .64.91c.14.355.21.752.21 1.19s-.076.83-.228 1.19-.374.67-.666.93-.656.463-1.09.607-.93.218-1.488.218h-1.495zm0-1h1.495c.36 0 .677-.047.952-.143s.506-.23.692-.4a1.67 1.67 0 0 0 .423-.614c.095-.238.143-.5.143-.787 0-.594-.183-1.057-.55-1.39s-.92-.5-1.66-.5h-1.495v3.835z"/><use xlink:href="#H"/><path d="M306.833 355v-6.585h.663c.126 0 .212.024.26.072s.08.13.098.247l.078 1.026c.226-.46.504-.817.835-1.075s.72-.387 1.167-.387a1.84 1.84 0 0 1 .494.062 1.76 1.76 0 0 1 .41.172l-.15.865c-.03.107-.098.162-.202.162-.06 0-.154-.02-.28-.062s-.3-.063-.526-.063c-.403 0-.74.117-1 .352s-.497.574-.68 1.02V355h-1.158zm7.233.104c-.52 0-.92-.145-1.2-.435s-.42-.7-.42-1.255v-4.03h-.793c-.07 0-.128-.02-.176-.062s-.07-.105-.07-.2v-.462l1.08-.137.266-2.034c.01-.065.037-.118.084-.16a.27.27 0 0 1 .182-.062h.585v2.27h1.885v.838h-1.885v3.952c0 .277.067.483.202.617a.7.7 0 0 0 .52.202.93.93 0 0 0 .315-.049c.1-.032.166-.068.23-.107l.166-.107c.046-.032.086-.05.12-.05.06 0 .115.037.163.1l.338.553a2.13 2.13 0 0 1-.722.438c-.282.108-.572.16-.872.16zm7.7-.104h-.514a.62.62 0 0 1-.273-.052c-.07-.035-.115-.108-.137-.222l-.13-.6-.507.42a2.92 2.92 0 0 1-.52.313 2.7 2.7 0 0 1-.582.191c-.206.043-.434.064-.686.064a2.34 2.34 0 0 1-.718-.107c-.223-.072-.417-.18-.582-.322s-.296-.325-.394-.545-.146-.48-.146-.78c0-.26.07-.512.214-.753s.374-.456.692-.643.735-.34 1.25-.46 1.146-.18 1.892-.18v-.517c0-.515-.1-.903-.328-1.168s-.543-.396-.972-.396c-.282 0-.52.036-.712.107s-.36.15-.5.24l-.364.24c-.102.072-.203.107-.302.107a.35.35 0 0 1-.205-.062.47.47 0 0 1-.14-.152l-.208-.37c.364-.35.756-.613 1.176-.786s.886-.26 1.398-.26c.368 0 .695.06.98.182s.526.3.72.507.342.48.442.787a3.27 3.27 0 0 1 .149 1.014v4.214zm-3.003-.7a2.37 2.37 0 0 0 .559-.062c.17-.04.33-.1.478-.175a2.63 2.63 0 0 0 .43-.276 3.61 3.61 0 0 0 .4-.37v-1.358c-.533 0-.986.034-1.358.102s-.676.156-.9.265-.404.237-.5.386a.83.83 0 0 0-.159.497 1.11 1.11 0 0 0 .084.451.86.86 0 0 0 .228.311c.095.08.208.14.338.177a1.53 1.53 0 0 0 .42.053zm6.045-8.863v9.574h-1.157v-9.574h1.157z"/><use xlink:href="#D" x="145.6" y="2.664"/><use xlink:href="#E" x="145.6" y="2.665"/><use xlink:href="#F" x="145.6" y="2.665"/><use xlink:href="#G" x="145.6" y="2.665"/><use xlink:href="#E" x="163.293" y="2.665"/><use xlink:href="#I"/><use xlink:href="#F" x="43.666" y="-14.001"/><path d="M216.716 346.847c-.052.096-.132.143-.24.143-.065 0-.14-.023-.22-.07l-.302-.16c-.12-.058-.26-.112-.426-.162s-.36-.075-.585-.075c-.195 0-.37.025-.526.075s-.3.118-.4.204a.91.91 0 0 0-.253.303.82.82 0 0 0-.088.374c0 .17.05.3.146.422s.227.2.387.293.342.155.546.218l.627.2.627.237c.204.087.385.195.546.325a1.48 1.48 0 0 1 .387.478c.097.188.146.415.146.68 0 .303-.054.584-.163.842s-.27.48-.48.67-.472.337-.78.445-.663.162-1.066.162c-.46 0-.875-.074-1.248-.224s-.7-.342-.95-.575l.273-.442c.035-.056.076-.1.124-.13s.1-.046.188-.046.16.03.247.092l.315.2c.124.074.273.14.448.2a2.01 2.01 0 0 0 .66.092 1.81 1.81 0 0 0 .59-.088 1.35 1.35 0 0 0 .422-.237.94.94 0 0 0 .25-.345 1.08 1.08 0 0 0 .083-.418c0-.182-.05-.333-.146-.452a1.24 1.24 0 0 0-.387-.305 3.25 3.25 0 0 0-.549-.222l-.63-.198-.63-.237a2.22 2.22 0 0 1-.549-.334 1.54 1.54 0 0 1-.387-.498c-.097-.197-.146-.437-.146-.718a1.76 1.76 0 0 1 .156-.725c.104-.232.256-.436.455-.6s.444-.315.734-.42.622-.156.995-.156a3.14 3.14 0 0 1 1.167.205c.344.136.642.323.894.562l-.26.423zm1.872 7.728v-8.814h.7c.165 0 .27.08.312.24l.097.78c.282-.342.604-.617.965-.825s.78-.312 1.25-.312c.377 0 .72.072 1.027.218s.57.36.787.644.383.636.5 1.056.175.903.175 1.45c0 .485-.065.938-.195 1.355s-.316.78-.56 1.086-.54.546-.894.722-.75.263-1.193.263c-.407 0-.755-.067-1.043-.2s-.542-.325-.764-.572v2.912h-1.155zm2.93-7.995c-.377 0-.708.087-1 .26s-.545.42-.783.734v3.186c.212.286.445.487.7.604a2 2 0 0 0 .848.176c.6 0 1.082-.22 1.4-.657s.494-1.062.494-1.872c0-.43-.038-.797-.114-1.104s-.186-.56-.328-.757a1.28 1.28 0 0 0-.527-.433c-.208-.1-.445-.137-.7-.137z"/><use xlink:href="#H" x="-73.842" y="-2.665"/><use xlink:href="#C" x="72.722"/><path d="M244.854 352.346c-.165 0-.27-.08-.312-.24l-.104-.8c-.282.343-.604.616-.965.822a2.47 2.47 0 0 1-1.245.309c-.377 0-.72-.072-1.027-.218s-.57-.358-.787-.64-.383-.633-.5-1.054-.176-.903-.176-1.45c0-.485.065-.937.195-1.355a3.33 3.33 0 0 1 .562-1.09 2.64 2.64 0 0 1 .894-.725c.35-.175.75-.263 1.196-.263.403 0 .748.068 1.034.204a2.48 2.48 0 0 1 .767.575v-3.652h1.157v9.574h-.7zm-2.243-.845c.377 0 .708-.087 1-.26s.545-.418.784-.734v-3.185c-.212-.286-.445-.486-.7-.602a2.03 2.03 0 0 0-.842-.172c-.616 0-1.088.22-1.417.656s-.494 1.062-.494 1.872c0 .43.037.796.1 1.102a1.94 1.94 0 0 0 .325.754 1.28 1.28 0 0 0 .526.433c.208.1.448.137.716.137zm7.482-5.844c.394 0 .758.066 1.092.198s.622.323.865.572.432.557.568.923.205.783.205 1.25c0 .183-.02.304-.06.364s-.113.1-.22.1h-4.38c.01.416.065.778.17 1.086s.247.564.43.77.398.36.65.462a2.23 2.23 0 0 0 .845.152 2.45 2.45 0 0 0 .751-.101 3.58 3.58 0 0 0 .543-.218l.38-.218c.102-.067.2-.1.263-.1.096 0 .17.037.22.1l.325.423c-.143.173-.314.324-.514.45a3.17 3.17 0 0 1-.64.315c-.228.083-.463.145-.706.186s-.483.062-.72.062c-.455 0-.875-.077-1.258-.23a2.77 2.77 0 0 1-.995-.676c-.28-.297-.497-.664-.653-1.103s-.234-.94-.234-1.508c0-.46.07-.888.2-1.287s.343-.744.607-1.036a2.81 2.81 0 0 1 .97-.69c.383-.168.812-.25 1.3-.25zm.026.852c-.56 0-1 .16-1.32.484s-.52.77-.598 1.342h3.582a2.32 2.32 0 0 0-.111-.737 1.65 1.65 0 0 0-.325-.579 1.46 1.46 0 0 0-.523-.377 1.75 1.75 0 0 0-.706-.133z"/><use xlink:href="#C" x="94.028"/><path d="M263.52 352.45c-.52 0-.92-.145-1.2-.435s-.42-.71-.42-1.255v-4.03h-.793c-.07 0-.128-.02-.176-.062s-.07-.105-.07-.19v-.462l1.08-.137.266-2.034c.01-.065.037-.118.084-.16a.27.27 0 0 1 .182-.062h.585v2.27h1.885v.838h-1.885v3.952c0 .277.067.483.202.617a.7.7 0 0 0 .52.202.93.93 0 0 0 .315-.049c.09-.032.166-.068.23-.107l.166-.107c.046-.032.086-.05.12-.05.06 0 .115.037.163.1l.338.553a2.13 2.13 0 0 1-.722.438c-.282.107-.572.16-.872.16z"/><use xlink:href="#E" x="109.55" y="-14.001"/><path d="M383.96 142.616h-1.425c-.165 0-.298-.04-.4-.124s-.177-.187-.228-.313l-1.273-3.287h-6.108l-1.273 3.287a.74.74 0 0 1-.228.304.61.61 0 0 1-.399.133h-1.425l5.443-13.613h1.872l5.443 13.613zm-8.92-5.054h5.083l-2.138-5.538c-.14-.342-.275-.77-.408-1.283l-.205.717-.195.575-2.137 5.53z"/><use xlink:href="#J"/><use xlink:href="#J" x="8.873"/><path d="M407.056 132.84c.703 0 1.337.117 1.904.352a4.02 4.02 0 0 1 1.444.998 4.39 4.39 0 0 1 .912 1.563c.212.613.318 1.293.318 2.047 0 .76-.106 1.444-.318 2.052s-.517 1.127-.912 1.558a3.96 3.96 0 0 1-1.444.993c-.567.23-1.202.347-1.904.347s-1.338-.115-1.905-.347a4.03 4.03 0 0 1-1.45-.993 4.44 4.44 0 0 1-.922-1.558c-.215-.608-.323-1.292-.323-2.052 0-.754.107-1.436.323-2.047s.522-1.132.922-1.563a4.07 4.07 0 0 1 1.45-.998c.568-.235 1.202-.352 1.905-.352zm0 8.588c.95 0 1.66-.318 2.128-.955s.703-1.525.703-2.665c0-1.146-.234-2.04-.703-2.68s-1.178-.96-2.128-.96c-.48 0-.9.082-1.254.247s-.65.402-.888.713-.415.692-.532 1.145-.176.964-.176 1.534.06 1.08.176 1.53.294.828.532 1.135a2.38 2.38 0 0 0 .888.708c.354.164.772.246 1.254.246zm8.132-8.435v6.137c0 .728.167 1.292.503 1.7s.842.6 1.52.6a2.9 2.9 0 0 0 1.396-.352c.437-.235.84-.56 1.207-.98v-7.097h1.7v9.624h-1.007a.43.43 0 0 1-.456-.352l-.133-1.036c-.418.462-.887.835-1.406 1.117s-1.115.422-1.786.422c-.526 0-1-.087-1.392-.26s-.74-.42-1.012-.736-.477-.7-.613-1.15-.204-.947-.204-1.5v-6.137h1.692zm9.102 9.623v-9.624h1.006a.43.43 0 0 1 .457.352l.133 1.045a5.43 5.43 0 0 1 1.4-1.121c.518-.285 1.113-.427 1.8-.427.525 0 1 .087 1.393.26a2.76 2.76 0 0 1 1.008.74c.27.32.473.705.6 1.154s.2.947.2 1.492v6.127h-1.7v-6.127c0-.73-.166-1.293-.498-1.696s-.84-.603-1.525-.603c-.5 0-.967.12-1.4.36s-.834.567-1.202.98v7.087H424.3zm13.48.152c-.76 0-1.346-.212-1.754-.636s-.6-1.036-.6-1.833v-5.9h-1.16c-.102 0-.188-.03-.256-.1a.37.37 0 0 1-.105-.28v-.674l1.578-.2.4-2.973c.014-.095.055-.173.123-.233s.158-.1.268-.1h.854v3.315h2.756v1.226h-2.756v5.776c0 .405.1.707.295.903s.45.294.76.294a1.35 1.35 0 0 0 .461-.071 1.98 1.98 0 0 0 .338-.157l.242-.157c.066-.048.125-.07.176-.07.088 0 .168.054.236.162l.494.807c-.3.272-.643.486-1.055.642a3.66 3.66 0 0 1-1.273.23zm19.302-.152h-1.424c-.166 0-.3-.04-.4-.124s-.176-.187-.227-.313l-1.273-3.287h-6.1l-1.27 3.287a.75.75 0 0 1-.229.304.61.61 0 0 1-.4.133h-1.424l5.443-13.613h1.87l5.443 13.613zm-8.92-5.054h5.082l-2.137-5.538c-.14-.342-.275-.77-.408-1.283l-.205.717-.195.575-2.137 5.53zm17.148 5.054c-.24 0-.393-.117-.455-.352l-.152-1.168c-.412.5-.88.9-1.4 1.202s-1.135.45-1.82.45a3.47 3.47 0 0 1-1.5-.318 3.11 3.11 0 0 1-1.15-.936c-.316-.412-.56-.924-.73-1.54s-.258-1.32-.258-2.118c0-.7.096-1.37.285-1.98s.465-1.142.822-1.6a3.84 3.84 0 0 1 1.307-1.059c.514-.256 1.096-.385 1.748-.385.588 0 1.092.1 1.5.3a3.73 3.73 0 0 1 1.12.84v-5.34h1.7v13.994h-1zm-3.278-1.235c.55 0 1.035-.127 1.45-.38s.797-.6 1.145-1.073v-4.655c-.3-.418-.65-.7-1.02-.88a2.91 2.91 0 0 0-1.23-.252c-.898 0-1.6.32-2.07.96s-.723 1.552-.723 2.736c0 .627.055 1.164.162 1.6s.266.814.475 1.102.467.5.77.632.65.2 1.043.2zm7.124 1.235v-9.624h1.008c.24 0 .393.117.455.352l.125.988a4.96 4.96 0 0 1 1.19-1.073c.438-.28.95-.418 1.535-.418.652 0 1.18.18 1.582.542s.7.85.87 1.463a3.02 3.02 0 0 1 .527-.902c.217-.253.463-.462.734-.627s.563-.285.87-.36a3.87 3.87 0 0 1 .936-.114c.506 0 .957.08 1.354.242a2.67 2.67 0 0 1 1.006.708c.276.31.486.692.633 1.145s.22.97.22 1.553v6.127h-1.7V136.5c0-.754-.164-1.325-.494-1.715s-.807-.584-1.436-.584a2.16 2.16 0 0 0-.793.147 1.92 1.92 0 0 0-.66.432c-.2.2-.34.43-.45.717s-.166.623-.166 1.002v6.127h-1.7V136.5c0-.772-.154-1.35-.465-1.73s-.764-.57-1.36-.57c-.418 0-.805.112-1.162.337s-.686.53-.984.917v7.172h-1.693zm17.862-12.644c0 .165-.033.318-.102.46a1.29 1.29 0 0 1-.266.38c-.112.1-.238.198-.385.26a1.16 1.16 0 0 1-.465.095 1.13 1.13 0 0 1-.461-.095 1.24 1.24 0 0 1-.38-.26 1.27 1.27 0 0 1-.26-.38 1.11 1.11 0 0 1-.096-.46 1.16 1.16 0 0 1 .096-.47 1.23 1.23 0 0 1 .26-.39 1.26 1.26 0 0 1 .381-.261 1.13 1.13 0 0 1 .461-.095 1.16 1.16 0 0 1 .465.095 1.25 1.25 0 0 1 .385.26c.112.1.2.24.266.4a1.1 1.1 0 0 1 .102.47zm-.38 3.02v9.624h-1.7v-9.624h1.7zm2.982 9.624v-9.624h1.008c.24 0 .393.117.455.352l.135 1.045a5.43 5.43 0 0 1 1.4-1.121c.516-.285 1.113-.427 1.8-.427.525 0 .988.087 1.4.26s.738.42 1.008.74.473.705.613 1.154a5 5 0 0 1 .21 1.492v6.127h-1.7v-6.127c0-.73-.166-1.293-.498-1.696s-.842-.603-1.525-.603c-.5 0-.967.12-1.402.36s-.834.567-1.2.98v7.087h-1.693z"/><path d="M424.982 80.42H410.2c-3.297 0-5.983 2.973-5.983 6.64v30.592h61.146V87.06c0-3.667-2.674-6.64-5.982-6.64h-14.496" class="J"/><path d="M423.98 81.61l11.22 23.948L445.55 81.61l-10.854-2.415z" class="H"/><path d="M423.98 81.6l4.492 9.588 6.226-12.003-8.894-1.3zm21.936 0l-4.492 9.588-6.225-12.003 9.8-1.3z" fill="#d9e4f4"/><use xlink:href="#K" class="I"/><use xlink:href="#K" class="B C D E K"/><path d="M419.257 58.915l29.866-6.598" class="H"/><path d="M419.257 58.915l29.866-6.598" class="B C D E G K"/><use xlink:href="#L" fill="#f16423"/><use xlink:href="#L" class="B C D E F G"/><use xlink:href="#M" class="I"/><use xlink:href="#M" class="B C D E F"/><path d="M227.392 313.306l13.067-2.886" class="H"/><path d="M227.392 313.306l13.067-2.886" class="B C D E F G"/><use xlink:href="#N" fill="#505ca8"/><use xlink:href="#N" class="B C D E F G"/><use xlink:href="#O" class="I"/><use xlink:href="#O" class="B C D E F"/><path d="M301.524 313.305l13.068-2.887" class="H"/><path d="M301.524 313.305l13.068-2.887" class="B C D E F G"/><use xlink:href="#P" fill="#fdcd0b"/><use xlink:href="#P" class="B C D E F G"/><use xlink:href="#Q" class="I"/><use xlink:href="#Q" class="B C D E F"/><path d="M156.257 313.305l13.067-2.887" class="H"/><path d="M156.257 313.305l13.067-2.887" class="B C D E F G"/><path d="M405.538 237.623h-1.2c-.14 0-.25-.034-.336-.104s-.15-.158-.192-.265l-1.072-2.768h-5.144l-1.072 2.768c-.038.096-.102.182-.192.256a.51.51 0 0 1-.336.112h-1.2l4.584-11.464h1.576l4.584 11.465zm-7.513-4.256h4.28l-1.8-4.664c-.117-.288-.232-.648-.344-1.08l-.172.604-.164.484-1.8 4.656z"/><use xlink:href="#B" x="189.775"/><path d="M415.593 240.367V229.52h.848a.36.36 0 0 1 .384.296l.12.96a4.33 4.33 0 0 1 1.188-1.017c.445-.256.958-.384 1.54-.384a3.09 3.09 0 0 1 1.264.268c.38.168.7.443.968.792s.472.783.616 1.3.216 1.1.216 1.784c0 .597-.08 1.153-.24 1.668a4.27 4.27 0 0 1-.688 1.336 3.2 3.2 0 0 1-1.099.888c-.435.216-.924.324-1.468.324-.5 0-.93-.083-1.284-.248s-.668-.4-.94-.704v3.584h-1.425zm3.608-9.84c-.464 0-.87.106-1.22.32s-.67.515-.964.904v3.92c.26.353.548.6.86.744s.66.216 1.044.216c.752 0 1.33-.27 1.736-.808s.608-1.307.608-2.304c0-.528-.047-.98-.14-1.36s-.228-.7-.404-.933a1.55 1.55 0 0 0-.648-.53c-.256-.1-.546-.167-.87-.167zm6.81-4.687v11.784h-1.424V225.84H426zm4.416 1.135a.92.92 0 0 1-.084.389c-.057.12-.13.227-.225.32s-.2.167-.324.22-.254.08-.393.08a.94.94 0 0 1-.387-.08 1.04 1.04 0 0 1-.32-.221 1.03 1.03 0 0 1-.221-.319.95.95 0 0 1-.08-.389c0-.14.027-.27.08-.396a1.03 1.03 0 0 1 .22-.328 1.05 1.05 0 0 1 .32-.22.93.93 0 0 1 .387-.08c.14 0 .27.026.393.08a1.06 1.06 0 0 1 .324.22c.094.093.168.203.225.328a.99.99 0 0 1 .084.396zm-.32 2.545v8.104h-1.424v-8.104h1.424zm8.04 1.44a.68.68 0 0 1-.127.136c-.043.032-.105.048-.186.048s-.166-.033-.26-.1a3.65 3.65 0 0 0-.355-.22c-.145-.08-.318-.153-.523-.22a2.46 2.46 0 0 0-.756-.1c-.396 0-.744.07-1.05.212a2.02 2.02 0 0 0-.764.612c-.204.266-.36.6-.465.968a4.76 4.76 0 0 0-.156 1.272c0 .5.057.927.168 1.308s.27.7.473.96a2.01 2.01 0 0 0 .74.592 2.27 2.27 0 0 0 .98.204c.346 0 .63-.04.855-.124s.4-.175.56-.275l.367-.276a.44.44 0 0 1 .289-.124c.12 0 .213.045.27.136l.4.52c-.354.432-.793.748-1.32.947a4.7 4.7 0 0 1-1.672.3 3.54 3.54 0 0 1-1.412-.28 3.2 3.2 0 0 1-1.133-.813 3.84 3.84 0 0 1-.756-1.308c-.184-.518-.275-1.106-.275-1.768 0-.603.084-1.16.252-1.672s.412-.954.736-1.324a3.35 3.35 0 0 1 1.195-.868c.475-.208 1.02-.313 1.633-.313.564 0 1.066.093 1.504.276s.824.444 1.16.78l-.375.513zm7.895 6.663h-.633a.75.75 0 0 1-.336-.064c-.086-.042-.14-.133-.168-.27l-.16-.752-.623.516c-.203.152-.416.28-.64.384a3.26 3.26 0 0 1-.717.236 4.04 4.04 0 0 1-.844.08 2.87 2.87 0 0 1-.883-.132c-.273-.088-.514-.222-.717-.397a1.9 1.9 0 0 1-.484-.671c-.12-.27-.18-.6-.18-.96a1.8 1.8 0 0 1 .264-.928c.176-.297.46-.56.852-.8s.906-.42 1.54-.566 1.4-.22 2.328-.22v-.636c0-.634-.135-1.112-.404-1.437s-.668-.487-1.195-.487c-.348 0-.64.044-.877.132s-.443.187-.615.296l-.45.296c-.125.088-.248.132-.37.132-.096 0-.18-.025-.252-.076a.57.57 0 0 1-.172-.188l-.256-.456a4.61 4.61 0 0 1 1.447-.968c.518-.214 1.092-.32 1.72-.32.453 0 .855.075 1.207.224s.648.357.9.624a2.63 2.63 0 0 1 .543.969c.123.378.186.794.186 1.248v5.182zm-3.697-.872a2.91 2.91 0 0 0 .69-.076 2.7 2.7 0 0 0 .588-.216 3.11 3.11 0 0 0 .527-.34 4.61 4.61 0 0 0 .492-.456v-1.672c-.656 0-1.213.04-1.672.125s-.832.2-1.12.325-.496.293-.627.475-.197.387-.197.612c0 .214.035.4.105.555s.162.283.28.383a1.11 1.11 0 0 0 .416.217c.16.046.335.068.52.068zm8.313 1c-.64 0-1.13-.18-1.475-.536s-.518-.872-.518-1.544v-4.96h-.975a.32.32 0 0 1-.217-.076c-.06-.05-.088-.13-.088-.235v-.568l1.328-.168.328-2.504c.01-.08.045-.146.104-.196s.133-.076.225-.076h.72v2.792h2.32v1.032h-2.32v4.864c0 .34.084.595.248.76a.87.87 0 0 0 .641.248 1.15 1.15 0 0 0 .39-.06 1.56 1.56 0 0 0 .283-.133l.205-.132c.055-.04.104-.06.146-.06.076 0 .143.045.2.136l.416.68c-.246.23-.54.4-.9.54a2.99 2.99 0 0 1-1.071.196zm5.416-10.775a.89.89 0 0 1-.084.389c-.057.12-.13.227-.225.32a1.04 1.04 0 0 1-.322.221c-.123.053-.254.08-.393.08s-.268-.027-.4-.08-.227-.127-.32-.22a1.06 1.06 0 0 1-.219-.319.92.92 0 0 1-.08-.389.97.97 0 0 1 .08-.396 1.04 1.04 0 0 1 .22-.328c.093-.094.2-.167.32-.22a.94.94 0 0 1 .389-.08c.14 0 .27.026.393.08a1.03 1.03 0 0 1 .322.22 1.13 1.13 0 0 1 .225.328.94.94 0 0 1 .084.396zm-.32 2.545v8.104h-1.424v-8.104h1.424zm5.793-.13c.592 0 1.125.1 1.604.297a3.36 3.36 0 0 1 1.215.84c.334.362.6.8.77 1.315s.268 1.1.268 1.725-.1 1.216-.268 1.728-.436.95-.77 1.313a3.34 3.34 0 0 1-1.215.836c-.48.194-1.012.292-1.604.292s-1.127-.098-1.605-.292a3.39 3.39 0 0 1-1.219-.836c-.336-.363-.596-.8-.777-1.313s-.27-1.088-.27-1.728.092-1.2.27-1.725.44-.953.777-1.315a3.41 3.41 0 0 1 1.219-.84c.478-.198 1.013-.297 1.605-.297zm0 7.232c.8 0 1.396-.268 1.8-.804s.592-1.284.592-2.244c0-.966-.197-1.718-.592-2.256s-.992-.8-1.8-.8c-.406 0-.758.07-1.057.208s-.55.34-.748.6-.35.582-.447.964a5.25 5.25 0 0 0-.148 1.292c0 .48.05.9.148 1.288a2.63 2.63 0 0 0 .447.956 1.98 1.98 0 0 0 .748.596c.3.14.65.208 1.057.208zm5.615 1v-8.104h.848c.203 0 .33.1.385.296l.1.88a4.52 4.52 0 0 1 1.18-.944c.436-.24.938-.36 1.508-.36.443 0 .834.074 1.172.22a2.27 2.27 0 0 1 .848.624 2.8 2.8 0 0 1 .518.972 4.25 4.25 0 0 1 .176 1.256v5.16h-1.424v-5.16c0-.613-.14-1.1-.42-1.428s-.7-.508-1.285-.508a2.4 2.4 0 0 0-1.18.304c-.365.203-.703.478-1.012.824v5.968h-1.425zM423.922 250.4c.475 0 .898-.08 1.27-.24s.7-.385.947-.672.457-.633.594-1.032.203-.84.203-1.32v-6.968h1.545v6.968c0 .66-.105 1.274-.316 1.84a4.27 4.27 0 0 1-.904 1.468 4.13 4.13 0 0 1-1.437.973c-.567.235-1.2.352-1.903.352s-1.34-.117-1.904-.352-1.046-.56-1.44-.973a4.25 4.25 0 0 1-.908-1.468c-.21-.566-.316-1.18-.316-1.84v-6.968h1.544v6.96a4.08 4.08 0 0 0 .204 1.32c.136.4.333.743.592 1.03s.576.514.95.677.8.243 1.277.243zm11.638-5.535c-.063.117-.162.176-.295.176-.08 0-.172-.03-.27-.088l-.373-.196c-.146-.072-.32-.14-.523-.2a2.55 2.55 0 0 0-.72-.092 2.11 2.11 0 0 0-.648.092c-.2.062-.355.146-.5.252a1.02 1.02 0 0 0-.313.372 1 1 0 0 0-.107.46c0 .208.06.382.18.52a1.54 1.54 0 0 0 .475.36 4.16 4.16 0 0 0 .672.269l.773.248.77.292c.25.106.475.24.672.4s.355.356.477.588.18.5.18.836a2.65 2.65 0 0 1-.199 1.036 2.27 2.27 0 0 1-.594.824c-.26.232-.58.415-.96.548a3.96 3.96 0 0 1-1.313.2c-.564 0-1.076-.092-1.535-.276s-.848-.42-1.168-.708l.336-.544a.48.48 0 0 1 .152-.16.42.42 0 0 1 .23-.057c.095 0 .197.037.305.112l.4.248a3.03 3.03 0 0 0 .55.248c.214.075.486.1.813.1a2.25 2.25 0 0 0 .73-.107c.2-.072.38-.17.52-.292a1.16 1.16 0 0 0 .309-.424 1.31 1.31 0 0 0 .1-.513c0-.224-.06-.4-.18-.556s-.28-.27-.477-.376-.422-.194-.676-.27l-.775-.244-.777-.292a2.76 2.76 0 0 1-.676-.412c-.196-.165-.355-.37-.477-.612s-.18-.537-.18-.884a2.15 2.15 0 0 1 .193-.893 2.19 2.19 0 0 1 .559-.752c.246-.216.547-.388.904-.516s.766-.192 1.225-.192c.533 0 1.012.084 1.436.252a3.43 3.43 0 0 1 1.1.692l-.324.52zm5.512-1.465c.486 0 .934.082 1.344.244a3 3 0 0 1 1.064.704 3.23 3.23 0 0 1 .701 1.136 4.39 4.39 0 0 1 .252 1.54c0 .225-.025.374-.072.448s-.14.112-.273.112h-5.4c.01.512.08.957.207 1.336s.305.694.53.948.5.442.8.567a2.72 2.72 0 0 0 1.04.188c.357 0 .664-.04.924-.124a4.32 4.32 0 0 0 .668-.27l.467-.268c.127-.083.234-.124.324-.124.117 0 .2.045.273.136l.398.52a2.75 2.75 0 0 1-.631.556c-.246.157-.508.287-.8.388s-.568.178-.867.23-.596.076-.9.076c-.56 0-1.076-.095-1.547-.284a3.42 3.42 0 0 1-1.225-.832c-.345-.365-.6-.817-.805-1.356s-.287-1.157-.287-1.855c0-.565.086-1.094.26-1.584a3.73 3.73 0 0 1 .748-1.276 3.44 3.44 0 0 1 1.19-.848c.467-.205 1-.3 1.586-.3zm.033 1.048c-.7 0-1.23.198-1.625.596s-.64.948-.736 1.652h4.408a2.9 2.9 0 0 0-.135-.908c-.092-.274-.225-.513-.4-.712a1.79 1.79 0 0 0-.645-.464c-.255-.1-.542-.164-.867-.164zm5.143 7.185v-8.104h.816c.154 0 .262.03.32.088s.098.16.12.304l.096 1.264c.277-.565.62-1.007 1.03-1.324a2.28 2.28 0 0 1 1.436-.476 2.23 2.23 0 0 1 .607.076 2.05 2.05 0 0 1 .504.212l-.184 1.063c-.037.134-.12.2-.248.2-.074 0-.2-.025-.344-.076s-.37-.075-.648-.075c-.496 0-.9.144-1.244.432s-.6.707-.836 1.256v5.16h-1.423zm-89 91.353v1.027h-4.472v3.094h3.62v.988h-3.62v3.178h4.472v1.027h-5.74v-9.314h5.74zm1.63 9.324v-6.585h.7c.165 0 .27.08.312.24l.1.715c.286-.316.605-.572.958-.768s.762-.292 1.226-.292a2.38 2.38 0 0 1 .952.179 1.84 1.84 0 0 1 .689.507c.184.22.324.482.42.8a3.46 3.46 0 0 1 .143 1.02v4.192H363.2v-4.192c0-.498-.114-.885-.34-1.16s-.575-.413-1.043-.413a1.94 1.94 0 0 0-.959.247 3.15 3.15 0 0 0-.822.67v4.85h-1.157zm11.862 0c-.165 0-.27-.08-.312-.24l-.104-.8c-.282.343-.604.616-.965.822a2.47 2.47 0 0 1-1.245.309c-.377 0-.72-.072-1.027-.218s-.57-.358-.787-.64-.383-.633-.5-1.054-.176-.903-.176-1.45c0-.485.065-.937.195-1.355a3.33 3.33 0 0 1 .562-1.09 2.64 2.64 0 0 1 .894-.725c.35-.175.75-.263 1.196-.263.403 0 .748.068 1.034.204a2.48 2.48 0 0 1 .767.575v-3.652h1.157v9.574h-.7zm-2.243-.845c.377 0 .708-.087 1-.26s.545-.418.784-.734v-3.185c-.212-.286-.445-.486-.7-.602a2.03 2.03 0 0 0-.842-.172c-.616 0-1.088.22-1.417.656s-.494 1.062-.494 1.872c0 .43.037.796.1 1.102a1.94 1.94 0 0 0 .325.754 1.28 1.28 0 0 0 .526.433 1.79 1.79 0 0 0 .716.137zm-18.75 13.845c.386 0 .73-.065 1.034-.195a2.16 2.16 0 0 0 .77-.546 2.38 2.38 0 0 0 .481-.838 3.33 3.33 0 0 0 .166-1.073v-5.66h1.254v5.66c0 .538-.085 1.036-.257 1.495a3.5 3.5 0 0 1-.734 1.193c-.318.336-.708.6-1.167.8s-.975.286-1.547.286-1.088-.096-1.547-.286-.85-.453-1.17-.8a3.46 3.46 0 0 1-.738-1.193c-.17-.46-.257-.957-.257-1.495v-5.66h1.254v5.655c0 .4.055.747.166 1.072a2.42 2.42 0 0 0 .48.84c.2.236.468.417.773.55a2.6 2.6 0 0 0 1.038.198z"/><use xlink:href="#E" x="198.609" y="-0.056"/><use xlink:href="#R"/><use xlink:href="#G" x="198.608" y="-0.057"/><use xlink:href="#E" x="216.301" y="-0.056"/><path d="M492.03 351.47v3.484h-1.256v-9.314h2.75c.6 0 1.102.068 1.537.205s.797.33 1.082.58a2.38 2.38 0 0 1 .64.9c.14.345.2.752.2 1.2a3.03 3.03 0 0 1-.227 1.19 2.58 2.58 0 0 1-.666.93 3.08 3.08 0 0 1-1.09.607c-.434.146-.93.218-1.488.218h-1.494zm0-1h1.494a2.89 2.89 0 0 0 .953-.143 1.95 1.95 0 0 0 .69-.4c.184-.17.328-.376.422-.614s.145-.5.145-.787c0-.594-.184-1.057-.55-1.4s-.918-.5-1.66-.5h-1.494v3.835zm8.847-2.203c.48 0 .916.08 1.303.24s.72.388.988.683.48.65.625 1.07.217.885.217 1.4-.072.988-.217 1.404a3.04 3.04 0 0 1-.625 1.066 2.71 2.71 0 0 1-.988.679c-.387.158-.822.237-1.303.237a3.44 3.44 0 0 1-1.303-.237 2.73 2.73 0 0 1-.992-.68c-.272-.295-.482-.65-.63-1.066s-.223-.884-.223-1.404.074-.982.223-1.4a3.03 3.03 0 0 1 .629-1.069c.273-.295.604-.522.992-.683s.822-.24 1.303-.24zm0 5.876c.65 0 1.135-.218 1.457-.653s.48-1.043.48-1.823-.16-1.396-.48-1.833-.807-.656-1.457-.656c-.33 0-.615.057-.857.17a1.6 1.6 0 0 0-.607.487 2.15 2.15 0 0 0-.365.783 4.21 4.21 0 0 0-.12 1.05c0 .4.04.74.12 1.047a2.1 2.1 0 0 0 .365.776 1.61 1.61 0 0 0 .607.484c.242.112.527.17.857.17z"/><use xlink:href="#S"/><path d="M512.674 355.06c-.52 0-.92-.145-1.2-.435s-.418-.7-.418-1.255v-4.03h-.793c-.07 0-.13-.02-.176-.062s-.072-.105-.072-.2v-.462l1.08-.137.266-2.034a.25.25 0 0 1 .084-.16c.047-.042.1-.062.184-.062h.584v2.27h1.885v.838h-1.885v3.952c0 .277.066.483.2.617s.3.202.52.202a.93.93 0 0 0 .316-.049 1.3 1.3 0 0 0 .23-.107l.166-.107c.045-.032.086-.05.12-.05.06 0 .115.037.164.1l.338.553c-.2.187-.44.333-.723.438a2.43 2.43 0 0 1-.871.16zm7.69-.105h-.514a.63.63 0 0 1-.273-.052c-.068-.035-.113-.108-.135-.222l-.13-.6-.508.42c-.164.124-.338.228-.52.313s-.375.148-.582.2a3.44 3.44 0 0 1-.686.064c-.252 0-.494-.035-.717-.107a1.61 1.61 0 0 1-.582-.322c-.166-.144-.297-.325-.395-.545a1.9 1.9 0 0 1-.146-.779c0-.26.072-.512.215-.753s.375-.456.693-.643.734-.34 1.25-.46 1.146-.18 1.893-.18v-.517c0-.515-.1-.903-.328-1.168s-.543-.396-.973-.396c-.28 0-.52.036-.7.107a2.73 2.73 0 0 0-.502.24l-.363.24c-.102.072-.203.107-.303.107a.34.34 0 0 1-.203-.062.45.45 0 0 1-.14-.152l-.2-.37a3.79 3.79 0 0 1 1.178-.786 3.62 3.62 0 0 1 1.396-.26c.37 0 .695.06.982.182a2.02 2.02 0 0 1 .721.507c.196.217.344.48.443.787a3.3 3.3 0 0 1 .148 1.014v4.214zm-3.002-.7a2.38 2.38 0 0 0 .559-.062 2.19 2.19 0 0 0 .477-.175 2.57 2.57 0 0 0 .43-.276 3.7 3.7 0 0 0 .4-.37v-1.358c-.533 0-.986.034-1.36.102s-.676.156-.9.265-.404.237-.5.386-.158.313-.158.497c0 .174.027.324.084.45a.87.87 0 0 0 .227.311.92.92 0 0 0 .338.177 1.57 1.57 0 0 0 .422.053zm6.045-8.865v9.574h-1.158v-9.574h1.158zm-28.06 22.575a2.6 2.6 0 0 0 1.033-.195 2.17 2.17 0 0 0 .771-.546 2.41 2.41 0 0 0 .48-.838 3.36 3.36 0 0 0 .166-1.073v-5.66h1.254v5.66a4.27 4.27 0 0 1-.256 1.495c-.172.46-.416.857-.736 1.193a3.34 3.34 0 0 1-1.166.789c-.46.2-.975.286-1.547.286s-1.088-.096-1.547-.286-.85-.453-1.17-.8-.566-.733-.738-1.193a4.27 4.27 0 0 1-.256-1.495v-5.66h1.254v5.655c0 .4.055.747.166 1.072a2.39 2.39 0 0 0 .48.839 2.24 2.24 0 0 0 .773.55c.303.133.654.198 1.04.198zm9.457-4.498a.25.25 0 0 1-.24.143.45.45 0 0 1-.221-.071l-.303-.16c-.12-.058-.26-.112-.426-.162a2.03 2.03 0 0 0-.584-.075 1.73 1.73 0 0 0-.527.075c-.157.05-.3.118-.398.204a.91.91 0 0 0-.254.303c-.06.115-.088.24-.088.374 0 .17.05.3.146.422s.227.2.387.293.342.155.545.218l.627.2.63.237c.203.087.385.195.545.325a1.49 1.49 0 0 1 .387.478c.097.188.146.415.146.68a2.18 2.18 0 0 1-.162.842 1.87 1.87 0 0 1-.48.669 2.33 2.33 0 0 1-.781.445c-.307.108-.662.162-1.066.162-.46 0-.875-.074-1.248-.224a3.17 3.17 0 0 1-.947-.575l.27-.442a.39.39 0 0 1 .125-.13c.047-.03.1-.046.188-.046s.16.03.248.092l.314.2a2.34 2.34 0 0 0 .449.201c.174.062.395.092.658.092.227 0 .424-.03.592-.088s.3-.138.424-.237a.93.93 0 0 0 .25-.345 1.06 1.06 0 0 0 .08-.416c0-.182-.05-.333-.146-.452a1.23 1.23 0 0 0-.387-.305c-.16-.085-.342-.158-.55-.222l-.63-.198-.63-.237c-.207-.1-.4-.2-.55-.334a1.54 1.54 0 0 1-.387-.498c-.098-.197-.146-.437-.146-.718a1.77 1.77 0 0 1 .156-.725 1.79 1.79 0 0 1 .455-.611c.2-.175.445-.315.734-.42a2.95 2.95 0 0 1 .996-.156c.432 0 .822.068 1.166.205a2.73 2.73 0 0 1 .893.562l-.26.42z"/><use xlink:href="#T"/><use xlink:href="#S" x="8.046" y="14.001"/><use xlink:href="#U"/><use xlink:href="#I" x="198.607" y="-0.057"/><use xlink:href="#R" x="43.668" y="-14.001"/><use xlink:href="#E" x="254.729" y="-14.058"/><path d="M417.196 354.52v-8.814h.7c.165 0 .27.08.312.24l.097.78c.282-.342.604-.617.965-.825s.78-.312 1.25-.312c.377 0 .72.072 1.027.218s.57.36.786.644.384.636.5 1.056a5.46 5.46 0 0 1 .175 1.45c0 .485-.064.938-.194 1.355s-.316.78-.56 1.086-.54.546-.893.722-.75.263-1.193.263c-.407 0-.755-.067-1.043-.2s-.542-.325-.764-.572v2.912h-1.156zm2.93-7.996c-.377 0-.708.087-1 .26s-.545.42-.783.734v3.186c.212.286.445.487.7.604a2 2 0 0 0 .848.176c.6 0 1.082-.22 1.4-.657s.494-1.062.494-1.872a4.7 4.7 0 0 0-.113-1.104c-.075-.307-.186-.56-.328-.757a1.28 1.28 0 0 0-.527-.433c-.207-.09-.445-.137-.7-.137zm6.91-.922c.48 0 .916.08 1.303.24s.72.388.988.683.48.65.625 1.07.217.885.217 1.4-.072.988-.217 1.404a3.04 3.04 0 0 1-.625 1.066 2.71 2.71 0 0 1-.988.679c-.387.158-.822.237-1.303.237a3.43 3.43 0 0 1-1.304-.237c-.388-.158-.718-.385-1-.68s-.482-.65-.63-1.066a4.22 4.22 0 0 1-.221-1.404c0-.516.074-.982.22-1.4a3.03 3.03 0 0 1 .63-1.07 2.8 2.8 0 0 1 .991-.683c.387-.16.824-.24 1.304-.24zm0 5.876c.65 0 1.135-.218 1.457-.653s.48-1.043.48-1.823-.16-1.396-.48-1.833-.807-.656-1.457-.656a2.03 2.03 0 0 0-.858.169c-.243.112-.445.275-.607.487s-.284.474-.364.783-.12.66-.12 1.05.04.74.12 1.047.2.566.364.776a1.62 1.62 0 0 0 .607.484 2.03 2.03 0 0 0 .858.169z"/><use xlink:href="#V"/><path d="M443.463 352.3c-.166 0-.27-.08-.313-.24l-.104-.8c-.283.343-.604.616-.967.822s-.775.31-1.244.31c-.377 0-.72-.072-1.027-.218s-.57-.358-.787-.64-.383-.633-.5-1.054-.176-.903-.176-1.45c0-.485.066-.937.195-1.355s.318-.78.563-1.09.543-.55.895-.725.748-.263 1.195-.263c.402 0 .748.068 1.033.204s.54.328.768.575v-3.652h1.156v9.574h-.687zm-2.244-.845c.377 0 .71-.087.992-.26s.545-.418.783-.734v-3.185c-.213-.286-.445-.486-.7-.602s-.533-.172-.842-.172c-.615 0-1.088.22-1.416.656s-.494 1.062-.494 1.872c0 .43.037.796.11 1.102s.182.557.326.754.318.342.525.433.448.137.716.137z"/><use xlink:href="#T" x="-60.58" y="-16.666"/><use xlink:href="#V" x="21.306"/><path d="M462.13 352.394c-.52 0-.92-.145-1.2-.435s-.42-.71-.42-1.255v-4.03h-.793c-.068 0-.127-.02-.176-.062s-.07-.105-.07-.19v-.462l1.078-.137.268-2.034c.008-.065.035-.118.084-.16s.107-.062.182-.062h.586v2.27h1.885v.838h-1.885v3.952c0 .277.066.483.2.617s.307.202.52.202c.12 0 .227-.017.314-.05s.166-.068.232-.107l.164-.107c.047-.032.086-.05.12-.05.06 0 .115.037.162.1l.338.553c-.2.187-.44.333-.72.438a2.43 2.43 0 0 1-.871.16z"/><use xlink:href="#U" x="-53.742" y="-16.667"/><use xlink:href="#W" fill="#f16423"/><use xlink:href="#W" class="B C D E F G"/><use xlink:href="#X" class="I"/><use xlink:href="#X" class="B C D E F"/><path d="M426 313.25l13.068-2.886" class="H"/><path d="M426 313.25l13.068-2.886" class="B C D E F G"/><use xlink:href="#Y" fill="#505ca8"/><use xlink:href="#Y" class="B C D E F G"/><use xlink:href="#Z" class="I"/><use xlink:href="#Z" class="B C D E F"/><path d="M500.133 313.25l13.068-2.887" class="H"/><path d="M500.133 313.25l13.068-2.887" class="B C D E F G"/><use xlink:href="#a" fill="#fdcd0b"/><use xlink:href="#a" class="B C D E F G"/><use xlink:href="#Q" x="198.608" y="-0.056" class="I"/><use xlink:href="#Q" x="198.608" y="-0.056" class="B C D E F"/><path d="M354.866 313.25l13.067-2.887" class="H"/><path d="M354.866 313.25l13.067-2.887" class="B C D E F G"/><defs ><path id="B" d="M216.985 240.367V229.52h.848a.36.36 0 0 1 .384.296l.12.96a4.33 4.33 0 0 1 1.188-1.017c.445-.256.958-.384 1.54-.384.464 0 .885.1 1.264.268a2.63 2.63 0 0 1 .968.792c.267.35.472.783.616 1.3s.216 1.11.216 1.784c0 .597-.08 1.153-.24 1.668s-.39.96-.688 1.336-.665.672-1.1.888-.924.324-1.468.324c-.5 0-.93-.083-1.284-.248s-.668-.4-.94-.704v3.584h-1.424zm3.608-9.84c-.464 0-.87.106-1.22.32s-.67.515-.964.904v3.92c.26.353.548.6.86.744s.66.216 1.044.216c.752 0 1.33-.27 1.736-.808s.608-1.307.608-2.304c0-.528-.046-.98-.14-1.36s-.228-.69-.404-.933-.392-.42-.648-.53-.547-.167-.872-.167z"/><path id="C" d="M160.27 352.346v-6.585h.69c.165 0 .27.08.312.24l.09.715c.286-.316.605-.572.958-.768s.762-.292 1.226-.292a2.38 2.38 0 0 1 .952.179 1.84 1.84 0 0 1 .689.507c.184.22.324.482.42.8s.143.647.143 1.02v4.192h-1.157v-4.192c0-.498-.114-.885-.34-1.16s-.575-.413-1.043-.413a1.94 1.94 0 0 0-.959.247 3.15 3.15 0 0 0-.822.67v4.85h-1.157z"/><path id="D" d="M151.138 365.346c.386 0 .73-.065 1.034-.195s.56-.312.77-.546a2.38 2.38 0 0 0 .481-.838c.11-.325.166-.683.166-1.073v-5.66h1.254v5.66c0 .538-.085 1.036-.257 1.495s-.416.857-.734 1.193-.708.6-1.167.79-.975.286-1.547.286-1.088-.096-1.547-.286-.85-.453-1.17-.79-.567-.733-.738-1.193-.257-.957-.257-1.495v-5.66h1.254v5.655c0 .4.055.747.166 1.072s.27.604.48.84.468.417.773.55.652.198 1.038.198z"/><path id="E" d="M160.595 360.848c-.052.096-.132.143-.24.143-.065 0-.14-.023-.22-.07l-.302-.16c-.12-.058-.26-.112-.426-.162s-.36-.075-.585-.075c-.195 0-.37.025-.526.075s-.29.118-.4.204a.91.91 0 0 0-.253.303c-.058.115-.088.24-.088.374 0 .17.05.3.146.422s.227.21.387.293.342.155.546.218l.627.2.627.237c.204.087.385.195.546.325s.29.29.387.478.146.415.146.68c0 .303-.054.584-.163.842s-.27.48-.48.67-.472.337-.78.445-.663.162-1.066.162c-.46 0-.875-.074-1.248-.224s-.69-.342-.95-.575l.273-.442c.035-.056.076-.1.124-.13s.11-.046.188-.046.16.03.247.092l.315.2c.124.074.273.14.448.2a2.01 2.01 0 0 0 .66.092c.225 0 .422-.03.59-.088s.3-.138.422-.237a.94.94 0 0 0 .25-.345c.054-.13.08-.27.08-.416 0-.182-.05-.333-.146-.452a1.24 1.24 0 0 0-.387-.305 3.25 3.25 0 0 0-.549-.222l-.63-.198-.63-.237a2.22 2.22 0 0 1-.549-.334 1.54 1.54 0 0 1-.387-.498c-.097-.197-.146-.437-.146-.718 0-.25.052-.493.156-.725s.256-.436.455-.61.444-.315.734-.42.622-.156.995-.156a3.14 3.14 0 0 1 1.167.205c.344.136.642.323.894.562l-.258.42z"/><path id="F" d="M165.074 359.658c.394 0 .758.066 1.092.198s.622.323.865.572.432.557.568.923.205.783.205 1.25c0 .183-.02.304-.06.364s-.113.09-.22.09h-4.38c.01.416.065.778.17 1.086s.247.564.43.77.398.36.65.462.533.152.845.152a2.45 2.45 0 0 0 .751-.101 3.58 3.58 0 0 0 .543-.218l.38-.218c.102-.067.19-.1.263-.1.096 0 .17.037.22.1l.325.423c-.143.173-.314.324-.514.45a3.17 3.17 0 0 1-.64.315c-.228.083-.463.145-.706.186s-.483.062-.72.062c-.455 0-.875-.077-1.258-.23a2.77 2.77 0 0 1-.995-.676c-.28-.297-.497-.664-.653-1.103s-.234-.94-.234-1.508c0-.46.07-.888.21-1.287s.343-.744.607-1.036.587-.522.97-.69.812-.25 1.29-.25zm.026.852c-.56 0-1 .16-1.32.484s-.52.77-.598 1.342h3.582a2.32 2.32 0 0 0-.111-.737 1.65 1.65 0 0 0-.325-.579 1.46 1.46 0 0 0-.523-.377 1.77 1.77 0 0 0-.706-.133z"/><path id="G" d="M169.28 366.347v-6.585h.663c.126 0 .212.024.26.072s.08.13.098.247l.078 1.026c.226-.46.504-.817.835-1.075s.72-.387 1.167-.387a1.84 1.84 0 0 1 .494.062 1.76 1.76 0 0 1 .41.172l-.15.865c-.03.107-.098.162-.202.162-.06 0-.154-.02-.28-.062s-.3-.063-.526-.063c-.403 0-.74.117-1.01.352s-.497.574-.68 1.02v4.192h-1.158z"/><path id="H" d="M302.27 348.322c.48 0 .916.08 1.304.24a2.74 2.74 0 0 1 .988.683 3.02 3.02 0 0 1 .624 1.069c.145.418.218.885.218 1.4 0 .52-.073.988-.218 1.404s-.354.77-.624 1.066a2.72 2.72 0 0 1-.988.679c-.388.158-.822.237-1.304.237s-.915-.08-1.303-.237-.718-.385-.99-.68-.483-.65-.63-1.066-.22-.884-.22-1.404.074-.982.22-1.4a3.03 3.03 0 0 1 .63-1.069 2.79 2.79 0 0 1 .991-.683c.388-.16.822-.24 1.303-.24zm0 5.876c.65 0 1.135-.218 1.456-.653s.48-1.043.48-1.823-.16-1.396-.48-1.833-.806-.656-1.456-.656c-.33 0-.615.057-.858.17s-.445.275-.607.487-.284.474-.364.783-.12.66-.12 1.05.04.74.12 1.047a2.13 2.13 0 0 0 .364.776 1.61 1.61 0 0 0 .607.484 2.03 2.03 0 0 0 .858.169z"/><path id="I" d="M199.33 348.46v3.887h-1.254v-9.314h2.632c.59 0 1.1.06 1.527.18s.783.29 1.063.517.486.497.62.815.202.676.202 1.07c0 .33-.052.638-.156.924a2.44 2.44 0 0 1-.452.77 2.7 2.7 0 0 1-.722.582 3.6 3.6 0 0 1-.965.364 1.34 1.34 0 0 1 .416.396l2.717 3.698h-1.118c-.23 0-.398-.09-.507-.267l-2.418-3.328a.7.7 0 0 0-.241-.224c-.086-.046-.217-.068-.4-.068h-.955zm0-.917h1.32c.368 0 .692-.044.972-.133a1.98 1.98 0 0 0 .702-.377c.188-.163.33-.356.426-.582a1.91 1.91 0 0 0 .143-.747c0-.555-.183-.974-.55-1.255s-.91-.423-1.635-.423h-1.378v3.517z"/><path id="J" d="M391.98 134.703c-.05.07-.102.124-.152.162s-.124.057-.218.057-.198-.04-.31-.12a4.57 4.57 0 0 0-.423-.261 3.5 3.5 0 0 0-.623-.261c-.244-.08-.543-.12-.897-.12a2.92 2.92 0 0 0-1.245.252c-.36.168-.664.4-.907.727s-.427.7-.55 1.15-.186.954-.186 1.51c0 .583.066 1.1.2 1.553s.32.833.56 1.14a2.38 2.38 0 0 0 .878.703c.345.162.733.242 1.164.242.412 0 .75-.05 1.017-.147a3.12 3.12 0 0 0 .665-.328l.437-.328c.114-.098.228-.147.342-.147.146 0 .253.054.323.162l.475.617a3.66 3.66 0 0 1-1.567 1.126 5.57 5.57 0 0 1-1.985.356c-.602 0-1.16-.11-1.677-.333s-.964-.543-1.344-.964-.68-.94-.898-1.553-.328-1.314-.328-2.1c0-.716.1-1.377.3-1.985a4.49 4.49 0 0 1 .874-1.572c.383-.44.856-.784 1.42-1.03s1.2-.37 1.938-.37c.67 0 1.267.11 1.786.328s.98.527 1.377.926l-.446.608z"/><path id="K" d="M450.637 68.476c0 8.44-6.854 15.302-15.307 15.302h-.766c-8.455 0-15.307-6.86-15.307-15.302v-9.56c0-8.452 6.852-15.3 15.307-15.3h.766c8.453 0 15.307 6.847 15.307 15.3v9.56z"/><path id="L" d="M229.896 322.713h-6.463c-1.44 0-2.617 1.3-2.617 2.905v13.384h26.752v-13.384c0-1.604-1.17-2.905-2.618-2.905h-6.34"/><path id="M" d="M241.12 317.488a6.7 6.7 0 0 1-6.697 6.695h-.335a6.7 6.7 0 0 1-6.697-6.695v-4.183c0-3.698 2.998-6.694 6.697-6.694h.335c3.7 0 6.697 2.996 6.697 6.694v4.183z"/><path id="N" d="M304.03 322.715h-6.463c-1.442 0-2.618 1.3-2.618 2.902v13.385h26.753v-13.385c0-1.604-1.17-2.902-2.618-2.902h-6.344"/><path id="O" d="M315.253 317.488a6.7 6.7 0 0 1-6.698 6.693h-.333a6.7 6.7 0 0 1-6.698-6.693v-4.184c0-3.697 3-6.693 6.698-6.693h.333c3.7 0 6.698 2.996 6.698 6.693v4.184z"/><path id="P" d="M158.763 322.713H152.3c-1.442 0-2.618 1.3-2.618 2.904v13.385h26.753v-13.385c0-1.604-1.17-2.904-2.618-2.904h-6.344"/><path id="Q" d="M169.987 317.486a6.7 6.7 0 0 1-6.698 6.695h-.333a6.7 6.7 0 0 1-6.698-6.695v-4.182c0-3.697 3-6.693 6.698-6.693h.333c3.7 0 6.698 2.996 6.698 6.693v4.182z"/><path id="R" d="M363.682 359.603c.394 0 .758.066 1.092.198s.622.323.865.572.432.557.568.923.205.783.205 1.25c0 .183-.02.304-.06.364s-.113.09-.22.09h-4.38c.01.416.065.778.17 1.086s.247.564.43.77.398.36.65.462.533.152.845.152a2.45 2.45 0 0 0 .751-.101 3.58 3.58 0 0 0 .543-.218l.38-.218c.102-.067.19-.1.263-.1.096 0 .17.037.22.1l.325.423c-.143.173-.314.324-.514.45a3.17 3.17 0 0 1-.64.315c-.228.083-.463.145-.706.186s-.483.062-.72.062c-.455 0-.875-.077-1.258-.23a2.77 2.77 0 0 1-.995-.676c-.28-.297-.497-.664-.653-1.103s-.234-.94-.234-1.508c0-.46.07-.888.21-1.287s.343-.744.607-1.036.587-.522.97-.69.812-.25 1.29-.25zm.026.85c-.56 0-1 .16-1.32.484s-.52.77-.598 1.342h3.582a2.32 2.32 0 0 0-.111-.737 1.65 1.65 0 0 0-.325-.579 1.46 1.46 0 0 0-.523-.377c-.206-.09-.442-.133-.706-.133z"/><path id="S" d="M505.44 354.955v-6.585h.664c.125 0 .21.024.26.072s.08.13.098.247l.078 1.026c.225-.46.502-.817.834-1.075s.72-.387 1.168-.387c.182 0 .346.02.494.062s.283.1.408.172l-.148.865c-.03.107-.098.162-.203.162-.06 0-.152-.02-.28-.062s-.3-.063-.525-.063a1.49 1.49 0 0 0-1.012.352c-.27.234-.496.574-.678 1.02v4.192h-1.16z"/><path id="T" d="M509.28 362.268a2.94 2.94 0 0 1 1.092.198c.334.132.623.323.865.572s.432.557.568.923.205.783.205 1.25c0 .183-.02.304-.06.364s-.113.09-.22.09h-4.38c.008.416.064.778.168 1.086s.248.564.43.77.398.36.65.462.533.152.844.152c.29 0 .54-.033.752-.1a3.62 3.62 0 0 0 .543-.218l.38-.218c.102-.068.19-.1.264-.1.096 0 .17.037.22.1l.326.423c-.145.173-.314.324-.514.45a3.18 3.18 0 0 1-.641.315 4.04 4.04 0 0 1-.705.186 4.33 4.33 0 0 1-.723.062 3.37 3.37 0 0 1-1.258-.23 2.76 2.76 0 0 1-.994-.676c-.28-.297-.496-.664-.652-1.103s-.234-.94-.234-1.508c0-.46.07-.888.21-1.287s.344-.744.607-1.036.588-.522.97-.69.812-.25 1.288-.25zm.026.85c-.56 0-.998.16-1.318.484s-.52.77-.598 1.342h3.58c0-.27-.035-.515-.11-.737s-.182-.416-.326-.58a1.46 1.46 0 0 0-.521-.377 1.78 1.78 0 0 0-.708-.133z"/><path id="U" d="M522.496 363.457c-.053.096-.133.143-.24.143-.066 0-.14-.023-.22-.07l-.303-.16a2.94 2.94 0 0 0-.426-.162 2.02 2.02 0 0 0-.586-.075 1.71 1.71 0 0 0-.525.075c-.156.05-.29.118-.4.204s-.195.188-.254.303-.088.24-.088.374c0 .17.05.3.146.422s.227.21.387.293.344.155.547.218l.627.2.627.237a2.3 2.3 0 0 1 .547.325c.16.13.29.29.387.478s.146.415.146.68c0 .303-.055.584-.164.842s-.268.48-.48.67-.473.337-.78.445-.664.162-1.066.162c-.46 0-.875-.074-1.248-.224s-.69-.342-.95-.575l.273-.442c.035-.056.076-.1.123-.13a.35.35 0 0 1 .189-.046.43.43 0 0 1 .246.092l.314.2c.125.074.273.14.45.2a2.01 2.01 0 0 0 .66.092c.225 0 .422-.03.592-.088s.31-.138.422-.237a.94.94 0 0 0 .25-.345c.055-.13.082-.27.082-.416 0-.182-.05-.333-.146-.452s-.227-.22-.387-.305-.344-.158-.55-.222l-.63-.198-.63-.237c-.205-.09-.39-.2-.55-.334a1.54 1.54 0 0 1-.387-.498c-.098-.197-.146-.437-.146-.718a1.77 1.77 0 0 1 .156-.725c.104-.232.256-.436.455-.61s.443-.315.734-.42a2.93 2.93 0 0 1 .994-.156c.434 0 .822.068 1.166.205s.643.323.895.562l-.26.42z"/><path id="V" d="M431.6 352.3v-6.585h.69c.164 0 .268.08.313.24l.1.715c.287-.316.605-.572.96-.768s.762-.292 1.225-.292c.36 0 .678.06.953.18s.504.288.69.507.324.482.418.8.145.647.145 1.02v4.192h-1.158v-4.192c0-.498-.113-.885-.34-1.16s-.576-.413-1.045-.413a1.93 1.93 0 0 0-.957.247c-.297.165-.572.388-.822.67v4.85h-1.16z"/><path id="W" d="M428.504 322.657h-6.463c-1.44 0-2.617 1.3-2.617 2.905v13.384h26.75v-13.384c0-1.604-1.17-2.905-2.617-2.905h-6.342"/><path id="X" d="M439.73 317.433a6.7 6.7 0 0 1-6.697 6.695h-.334a6.7 6.7 0 0 1-6.697-6.695v-4.183c0-3.698 2.998-6.694 6.697-6.694h.334c3.7 0 6.697 2.996 6.697 6.694v4.183z"/><path id="Y" d="M502.64 322.66h-6.463c-1.443 0-2.62 1.3-2.62 2.902v13.385h26.754V325.56c0-1.604-1.172-2.902-2.62-2.902h-6.344"/><path id="Z" d="M513.86 317.433a6.7 6.7 0 0 1-6.697 6.693h-.334a6.7 6.7 0 0 1-6.697-6.693v-4.184c0-3.697 3-6.693 6.697-6.693h.334c3.7 0 6.697 2.996 6.697 6.693v4.184z"/><path id="a" d="M357.372 322.657h-6.463c-1.442 0-2.618 1.3-2.618 2.904v13.385h26.753V325.56c0-1.604-1.17-2.904-2.618-2.904h-6.344"/></defs></svg>